<?xml version="1.0" encoding="utf-8"?>
<!-- Generator: Adobe Illustrator 16.0.0, SVG Export Plug-In . SVG Version: 6.00 Build 0)  -->
<!DOCTYPE svg PUBLIC "-//W3C//DTD SVG 1.1//EN" "http://www.w3.org/Graphics/SVG/1.1/DTD/svg11.dtd">
<svg version="1.1" id="Layer_1" xmlns="http://www.w3.org/2000/svg" xmlns:xlink="http://www.w3.org/1999/xlink" x="0px" y="0px"
	 width="792px" height="612px" viewBox="0 0 792 612" enable-background="new 0 0 792 612" xml:space="preserve">
<g>
	<g>
		<path fill="#FDFDFD" d="M405.955,454.605c-93.566,0-187.133-0.064-280.698,0.159c-5.656,0.015-6.78-1.109-6.766-6.764
			c0.226-93.567,0.226-187.133,0-280.7c-0.014-5.655,1.112-6.768,6.765-6.763c187.132,0.19,374.266,0.19,561.398,0
			c5.653-0.005,6.779,1.108,6.766,6.763c-0.227,93.565-0.227,187.132,0,280.7c0.014,5.654-1.109,6.778-6.766,6.764
			C593.088,454.541,499.521,454.605,405.955,454.605z M323.463,360.034c0-4.127-0.449-8.295,0.101-12.328
			c0.919-6.738-1.805-10.415-7.874-13.198c-36.54-16.758-74.737-21.16-114.284-15.906c-1.622,0.216-3.55,1.191-4.569-0.02
			c-1.737-2.062,0.999-3.224,1.758-4.787c1.279-2.635,3.726-2.711,6.263-2.99c26.773-2.941,53.224-1.253,79.458,4.876
			c13.529,3.162,26.169,8.634,39.089,14.938c0-4.323-0.338-7.664,0.067-10.912c1.031-8.257-1.856-13.807-8.356-19.582
			c-29.856-26.517-48.894-59.791-57.203-98.814c-1.585-7.446-3.81-10.711-11.381-9.288c-1.329,0.25-2.769,0.201-4.117,0.006
			c-5.442-0.784-6.866,0.953-5.875,6.661c5.649,32.585,18.593,61.864,38.595,88.125c1.33,1.748,3.844,3.054,3.316,5.871
			c-5.706,1.787-8.139-2.243-10.745-5.724c-20.127-26.888-32.53-57.103-38.211-90.089c-0.671-3.902-2.014-5.495-5.663-4.774
			c-6.838,1.35-14.474-3.246-20.634,2.785c-0.306,0.3-0.135,1.066-0.23,1.607c-7.695,43.382-27.988,79.387-62.684,106.939
			c-1.97,1.564-3.654,2.978-3.552,5.974c0.233,6.768,0.074,13.55,0.074,21.771c38.093-24.071,62.59-57.267,78.505-97.571
			c4.792,4.14,3.386,7.974,1.462,12.218c-16.515,36.426-40.827,66.25-74.238,88.498c-2.519,1.677-6.117,2.422-5.83,6.993
			c0.402,6.419,0.102,12.884,0.102,18.173C199.24,326.599,260.791,327.71,323.463,360.034z M361.947,239.946
			c0,8.229,0.431,16.489-0.14,24.677c-0.436,6.244,2.234,6.955,7.55,7.058c5.517,0.108,7.459-1.608,6.697-6.934
			c-0.27-1.882,0.158-3.86-0.079-5.75c-0.909-7.292,0.271-11.23,9.568-10.949c11.529,0.352,19.426-9.108,19.194-20.207
			c-0.218-10.381-7.614-17.128-19.715-17.658c-6.023-0.265-12.078,0.129-18.098-0.183c-4.107-0.213-5.149,1.443-5.045,5.258
			C362.103,223.483,361.948,231.716,361.947,239.946z M352.87,338.472c8.979,1.696,16.388,1.764,18.589-8.902
			c1.094-5.304,5.512-4.787,9.204-4.239c4.372,0.649,10.742-3.217,12.584,3.991c2.603,10.184,9.237,11.354,18.766,8.95
			c-9.729-20.905-19.383-41.651-29.639-63.692C372.138,296.748,362.556,317.497,352.87,338.472z M638.321,337.806
			c2.943,0.748,5.266,1.622,7.656,1.89c6.418,0.723,12.242-0.82,15.8-6.569c4.683-7.563,4.916-15.678,0.765-23.543
			c-3.268-6.194-9.116-9.479-15.763-8.125c-5.417,1.103-10.637,1.247-15.949,0.859c-4.252-0.31-5.685,0.969-5.595,5.417
			c0.284,14.02,0.192,28.046,0.054,42.07c-0.046,4.476-0.235,7.581,6.209,7.494c6.326-0.084,7.368-2.548,6.891-7.818
			C638.045,345.7,638.321,341.864,638.321,337.806z M525.635,319.491c-2.835-6.852-5.277-12.753-8.167-19.736
			c-3.073,7.117-5.604,12.979-8.482,19.643c-4.931-8.544-5.233-22.19-20.853-15.886c4.651,10.894,9.171,21.986,14.145,32.87
			c1.927,4.217,7.051,3.87,9.449-0.224c2.024-3.457,2.224-7.906,5.883-10.888c1.504,3.797,2.689,7.456,4.375,10.869
			c2.071,4.196,7.437,4.467,9.424,0.277c5.205-10.966,9.974-22.141,14.791-32.95C530.413,297.192,530.434,310.579,525.635,319.491z
			 M572.241,323.055c1.926,0,3.895-0.263,5.769,0.047c7.076,1.169,7.867-2.221,6.256-7.959c-2.559-9.107-10.104-14.624-19.693-14.1
			c-9.874,0.539-17.22,7.28-18.221,16.915c-0.789,7.597,0.943,14.498,7.737,18.74c8.347,5.213,17.244,5.064,25.891,0.546
			c1.924-1.006,6.039-1.645,3.117-5.772c-1.993-2.815-3.447-5.389-7.585-2.294c-3.461,2.59-7.828,2.281-11.825,0.622
			c-2.02-0.837-4.3-2.087-4.079-4.605c0.301-3.468,3.333-1.882,5.214-2.076C567.271,322.864,569.767,323.055,572.241,323.055z
			 M417.293,320.222c0,4.677,0.131,9.357-0.046,14.025c-0.121,3.199,0.369,4.779,4.312,5.022c6.346,0.391,9.952-0.712,8.823-8.224
			c-0.607-4.032-0.115-8.234-0.09-12.359c0.021-3.605,0.827-6.911,5.284-6.718c4.356,0.19,4.985,3.553,4.973,7.118
			c-0.018,5.226,0.294,10.473-0.08,15.671c-0.414,5.764,3.537,4.33,6.499,4.288c2.937-0.042,6.953,1.532,6.697-4.232
			c-0.307-6.863,0.238-13.771-0.207-20.617c-0.635-9.767-7.633-14.556-17.266-12.091c-2.906,0.744-5.505,0.979-8.602,0.484
			c-10.254-1.635-10.298-1.366-10.3,9.381C417.291,314.722,417.292,317.473,417.293,320.222z M522.265,253.548
			c0.182,10.891,8.548,19.204,19.373,19.248c11.16,0.045,19.666-8.627,19.504-19.887c-0.156-10.888-8.507-19.213-19.328-19.269
			C530.688,233.581,522.077,242.351,522.265,253.548z M402.658,253.209c-0.003,11.208,8.703,19.811,19.816,19.58
			c10.891-0.224,19.004-8.562,19.02-19.542c0.016-11.263-8.668-19.869-19.795-19.616
			C410.907,233.879,402.662,242.355,402.658,253.209z M574.854,271.288c5.451,1.417,5.803-1.367,6.405-6.042
			c0.966-7.493-4.726-16.397,4.363-22.613c1.069-0.732,1.357-5.273-0.735-7.572c-4.99-5.482-5.383-8.395-0.646-13.203
			c3.077-3.122,1.764-6.695,1.398-9.832c-0.411-3.515-4.036-1.801-6.134-1.729c-7.736,0.27-10.973,4.281-11.651,12.929
			c-0.303,3.844,2.101,8.479-1.598,11.423c-4.529,3.607-4.533,6.937-0.124,9.9c2.25,1.513,1.71,3.159,1.752,4.872
			c0.121,4.936,0.328,9.899-0.032,14.812C567.46,269.592,568.437,273.015,574.854,271.288z M477.079,339.113
			c1.418-1.224,5.784,2.053,5.724-2.742c-0.038-3.001,2.564-7.284-2.938-8.885c-5.913-1.721-2.465-6.837-3.274-10.382
			c-0.777-3.405,0.731-5.025,4.421-4.839c2.903,0.148,2.699-2.343,2.46-4.152c-0.253-1.915,1.399-5.482-1.69-5.427
			c-6.9,0.126-5.889-4.458-5.468-8.307c0.62-5.662-1.77-6.62-6.935-6.798c-5.705-0.198-6.165,2.266-5.977,6.763
			c0.141,3.376,1.754,7.417-4.323,8.746c-2.728,0.597-2.131,7.227-0.646,7.751c9.141,3.227,4.239,10.508,4.953,15.814
			C464.567,335.436,467.599,338.893,477.079,339.113z M497.623,271.467c1.787-0.864,5.67,1.872,5.653-2.173
			c-0.014-3.141,2.891-7.633-3.003-9.443c-5.694-1.748-2.559-6.925-3.318-10.568c-0.765-3.664,1.169-4.383,4.564-4.655
			c2.843-0.228,4.013-9.068,1.745-9.104c-9.597-0.145-6.177-7.009-6.271-11.55c-0.108-5.345-3.658-3.728-6.264-3.734
			c-2.927-0.006-6.826-1.558-6.845,4.162c-0.014,4.233,2.507,9.762-4.8,11.653c-1.31,0.339-1.369,6.877,0.052,7.369
			c8.276,2.865,4.085,9.484,4.7,14.314C485.136,267.923,488.112,271.362,497.623,271.467z M598.626,302.297
			c-5.183-0.845-7.521,0.616-7.155,6.468c0.528,8.452,0.224,16.966,0.092,25.451c-0.051,3.217,0.546,4.774,4.387,5.066
			c6.312,0.48,9.95-0.643,8.692-8.104c-0.538-3.193-0.112-6.556-0.08-9.841c0.05-5,1.052-9.38,7.512-6.595
			c3.431,1.479,3.937-0.971,4.66-2.68c1.187-2.8,5.085-5.074,2.938-8.542c-1.255-2.023-4.559-2.988-6.703-2.037
			C608.136,303.629,603.428,303.281,598.626,302.297z M446.15,252.654c0,4.376,0.208,8.766-0.061,13.125
			c-0.248,4.021,0.726,5.773,5.306,5.875c5.559,0.124,8.891-0.508,7.838-7.322c-0.619-4.007-0.222-8.195-0.055-12.292
			c0.178-4.346,2.434-7.319,6.795-5.157c4.222,2.091,4.885-0.927,5.777-3.084c1.048-2.533,4.956-4.712,2.541-7.761
			c-1.874-2.365-5.429-3.104-8.302-1.706c-3.515,1.709-6.606,1.521-10.343,0.667c-6.615-1.509-11.075,0.342-9.581,8.643
			C446.59,246.556,446.149,249.646,446.15,252.654z M435.525,427.023c-2.985-9.144-6.633-16.327-11.521-24.733
			c-3.581,7.603-6.562,13.932-10.433,22.149C423.984,416.674,423.984,416.674,435.525,427.023z M340.049,425.342
			c0.554,0.586,1.109,1.171,1.664,1.755c4.36-8.711,9.823-12.476,18.587-3.087c-1.598-7.724-4.601-12.58-6.864-17.726
			c-1.732-3.938-3.455-2.701-4.796,0.136C345.678,412.681,342.901,419.029,340.049,425.342z M445.273,413.54
			c0,2.56,0.179,4.484-0.031,6.366c-0.837,7.513,3.988,7.637,8.697,5.943c10.542-3.789,1.524-11.659,2.932-17.515
			c0.929-3.866-2.951-5.298-6.613-5.186C441.121,403.431,447.325,410.687,445.273,413.54z M250.915,422.241
			c3.161,4.829,7.305,6.22,11.236,2.733c4.262-3.781,1.928-7.811-1.534-11.282c-1.964-1.969-6.097-3.072-4.484-6.894
			c1.603-3.799,4.862,1.812,7.359-0.933c-2.438-3.69-5.678-5.495-9.269-2.123c-4.046,3.799-1.578,7.327,1.736,10.435
			c2.262,2.118,6.418,3.883,4.133,7.798C257.971,425.609,254.72,420.993,250.915,422.241z M275.535,404.04
			c0,5.529-0.398,11.095,0.133,16.571c0.385,3.96,3.391,6.025,7.523,6.01c4.261-0.015,6.82-2.431,7.214-6.352
			c0.538-5.348,0.894-10.793-0.621-17.133c-2.429,5.286-0.644,10.034-1.726,14.412c-0.724,2.934-1.543,6.163-5.653,5.629
			c-3.599-0.467-3.67-3.394-3.936-6.198C278.058,412.657,279.556,408.045,275.535,404.04z M302.362,425.281
			c5.969,2.046,9.23,1.147,10.862-2.721c1.472-3.489-0.399-6.298-3.034-8.605c-1.23-1.077-2.48-2.135-3.651-3.273
			c-1.004-0.978-1.792-2.149-1.149-3.618c0.953-2.179,2.47-1.473,4.033-0.716c1.155,0.559,2.466,1.261,3.164-0.824
			c-2.7-3.855-6.222-4.863-9.443-1.271c-3.286,3.665-1.139,7.216,2.175,9.76C310.829,418.242,313.221,422.018,302.362,425.281z
			 M551.323,402.698c-5.314,13.709-9.639,2.868-14.568,1.056c4.487,6.906,7.18,14.066,8.06,22.393
			C544.57,417.862,547.957,411.081,551.323,402.698z M392.229,413.158c3.006,5.239,5.963,9.067,11.925,12.4
			c-0.96-8.215,1.274-15.067-1.758-22.715c-2.846,5.237-0.311,10.064-2.276,14.62C397.396,416.554,396.513,413.049,392.229,413.158z
			 M386.138,404.035c-1.434,7.298-2.041,14.475,0.31,21.621c2.584-3.881-0.298-10.101,2.196-11.968
			C397.405,407.136,387.524,407.026,386.138,404.035z M328.723,426.661c4.022-7.986-2.84-16.979,5.522-23.097
			c-4.069-0.653-7.546-0.824-11.455,0.125C331.299,409.479,324.193,418.844,328.723,426.661z M515.459,403.485
			c8.839,6.045,1.519,15.705,6.212,22.901c4.755-7.291-3.064-16.929,5.731-22.545C523.835,402.57,520.33,403.112,515.459,403.485z
			 M372.9,425.618c1.619-7.312,2.235-14.582-0.2-21.743C370.898,411.16,370.881,418.415,372.9,425.618z M470.277,404.006
			c-1.352,7.268-2.247,14.516,0.26,21.662C472.483,418.423,472.409,411.194,470.277,404.006z M505.132,425.619
			c1.579-7.209,2.343-14.455,0.026-21.655C502.735,411.149,503.521,418.373,505.132,425.619z M484.153,403.756
			c-1.665,5.092-0.801,9.759-0.854,14.335c-0.104,9.256,1.726,10.278,12.587,5.919C478.321,424.038,488.776,410.843,484.153,403.756
			z"/>
		<path fill-rule="evenodd" clip-rule="evenodd" fill="#0B0B0B" d="M323.463,360.034c-62.673-32.324-124.223-33.436-186.657-0.547
			c0-5.289,0.301-11.754-0.102-18.173c-0.287-4.571,3.312-5.316,5.83-6.993c33.411-22.247,57.723-52.072,74.238-88.498
			c1.924-4.244,3.331-8.078-1.462-12.218c-15.915,40.304-40.413,73.5-78.505,97.571c0-8.222,0.16-15.004-0.074-21.771
			c-0.102-2.996,1.582-4.41,3.552-5.974c34.696-27.552,54.989-63.557,62.684-106.939c0.096-0.542-0.076-1.308,0.23-1.607
			c6.161-6.031,13.796-1.435,20.634-2.785c3.649-0.721,4.991,0.872,5.663,4.774c5.681,32.986,18.083,63.201,38.211,90.089
			c2.606,3.481,5.039,7.511,10.745,5.724c0.528-2.817-1.986-4.123-3.316-5.871c-20.002-26.261-32.946-55.54-38.595-88.125
			c-0.99-5.708,0.434-7.445,5.875-6.661c1.348,0.195,2.788,0.243,4.117-0.006c7.571-1.424,9.796,1.841,11.381,9.288
			c8.309,39.023,27.347,72.297,57.203,98.814c6.5,5.774,9.388,11.325,8.356,19.582c-0.405,3.248-0.067,6.589-0.067,10.912
			c-12.92-6.305-25.56-11.776-39.089-14.938c-26.234-6.129-52.685-7.817-79.458-4.876c-2.537,0.279-4.983,0.355-6.263,2.99
			c-0.759,1.563-3.495,2.725-1.758,4.787c1.019,1.211,2.948,0.235,4.569,0.02c39.546-5.254,77.744-0.852,114.284,15.906
			c6.069,2.783,8.793,6.46,7.874,13.198C323.015,351.739,323.463,355.907,323.463,360.034z"/>
		<path fill-rule="evenodd" clip-rule="evenodd" fill="#131313" d="M361.948,239.946c0-8.23,0.155-16.463-0.069-24.687
			c-0.104-3.815,0.938-5.471,5.045-5.258c6.02,0.312,12.074-0.082,18.098,0.183c12.101,0.53,19.498,7.277,19.715,17.658
			c0.232,11.099-7.665,20.559-19.194,20.207c-9.297-0.282-10.478,3.657-9.568,10.949c0.236,1.89-0.191,3.869,0.079,5.75
			c0.763,5.326-1.18,7.042-6.697,6.934c-5.316-0.104-7.986-0.814-7.55-7.058C362.378,256.436,361.947,248.175,361.948,239.946z
			 M375.97,228.833c0.281,3.778-1.788,8.754,5.458,7.938c5.104-0.576,9.421-1.583,9.591-7.677c0.195-7.034-4.969-7.195-10.133-7.697
			C373.931,220.721,376.495,225.725,375.97,228.833z"/>
		<path fill-rule="evenodd" clip-rule="evenodd" fill="#0F0F0F" d="M352.87,338.472c9.686-20.975,19.268-41.724,29.504-63.893
			c10.256,22.041,19.911,42.787,29.639,63.692c-9.528,2.404-16.163,1.233-18.766-8.95c-1.843-7.208-8.213-3.342-12.584-3.991
			c-3.692-0.548-8.11-1.064-9.204,4.239C369.258,340.235,361.849,340.168,352.87,338.472z M386.793,314.757
			c-1.168-4.128-2.541-6.988-4.783-9.716c-1.84,3.017-3.581,5.838-3.946,9.716C380.914,314.757,383.5,314.757,386.793,314.757z"/>
		<path fill-rule="evenodd" clip-rule="evenodd" fill="#0F0F0F" d="M638.321,337.806c0,4.059-0.276,7.895,0.067,11.675
			c0.478,5.271-0.564,7.734-6.891,7.818c-6.444,0.087-6.255-3.019-6.209-7.494c0.139-14.024,0.23-28.051-0.054-42.07
			c-0.09-4.448,1.343-5.727,5.595-5.417c5.312,0.387,10.532,0.244,15.949-0.859c6.646-1.353,12.495,1.932,15.763,8.125
			c4.151,7.865,3.918,15.979-0.765,23.543c-3.558,5.749-9.382,7.292-15.8,6.569C643.587,339.428,641.265,338.554,638.321,337.806z
			 M651.994,321.08c-0.153-5.183-1.898-9.231-7.3-9.231c-5.642,0.001-6.971,4.646-6.964,9.178c0.006,4.249,1.337,8.313,6.737,8.409
			C650.236,329.537,651.461,325.397,651.994,321.08z"/>
		<path fill-rule="evenodd" clip-rule="evenodd" fill="#0F0F0F" d="M525.635,319.491c4.799-8.912,4.778-22.299,20.564-16.024
			c-4.817,10.81-9.586,21.984-14.791,32.95c-1.987,4.189-7.353,3.919-9.424-0.277c-1.686-3.413-2.871-7.072-4.375-10.869
			c-3.659,2.981-3.858,7.431-5.883,10.888c-2.398,4.094-7.522,4.44-9.449,0.224c-4.974-10.884-9.493-21.977-14.145-32.87
			c15.619-6.305,15.922,7.342,20.853,15.886c2.878-6.664,5.409-12.525,8.482-19.643C520.357,306.738,522.8,312.64,525.635,319.491z"
			/>
		<path fill-rule="evenodd" clip-rule="evenodd" fill="#101010" d="M572.241,323.055c-2.475,0-4.971-0.19-7.42,0.063
			c-1.881,0.194-4.913-1.392-5.214,2.076c-0.221,2.519,2.06,3.769,4.079,4.605c3.997,1.659,8.364,1.968,11.825-0.622
			c4.138-3.095,5.592-0.521,7.585,2.294c2.922,4.128-1.193,4.767-3.117,5.772c-8.646,4.519-17.544,4.667-25.891-0.546
			c-6.794-4.242-8.526-11.144-7.737-18.74c1.001-9.635,8.347-16.376,18.221-16.915c9.589-0.524,17.135,4.992,19.693,14.1
			c1.611,5.738,0.82,9.128-6.256,7.959C576.136,322.792,574.167,323.055,572.241,323.055z M572.291,316.255
			c-2.894-5.215-5.136-8.006-9.77-6.104c-1.755,0.719-4.104,2.828-2.99,4.217C562.509,318.08,566.916,315.283,572.291,316.255z"/>
		<path fill-rule="evenodd" clip-rule="evenodd" fill="#0F0F0F" d="M417.293,320.222c-0.001-2.749-0.002-5.5-0.001-8.251
			c0.002-10.747,0.046-11.017,10.3-9.381c3.097,0.495,5.695,0.26,8.602-0.484c9.633-2.465,16.631,2.324,17.266,12.091
			c0.445,6.847-0.1,13.754,0.207,20.617c0.256,5.765-3.761,4.19-6.697,4.232c-2.962,0.042-6.913,1.476-6.499-4.288
			c0.374-5.198,0.062-10.445,0.08-15.671c0.013-3.565-0.616-6.928-4.973-7.118c-4.457-0.193-5.263,3.112-5.284,6.718
			c-0.025,4.125-0.518,8.327,0.09,12.359c1.129,7.512-2.478,8.614-8.823,8.224c-3.943-0.243-4.434-1.823-4.312-5.022
			C417.424,329.579,417.293,324.898,417.293,320.222z"/>
		<path fill-rule="evenodd" clip-rule="evenodd" fill="#101010" d="M522.265,253.548c-0.188-11.197,8.424-19.967,19.549-19.908
			c10.821,0.056,19.172,8.381,19.328,19.269c0.162,11.26-8.344,19.932-19.504,19.887
			C530.812,272.752,522.446,264.438,522.265,253.548z M548.718,253.046c-0.579-4.445-1.976-8.343-7.276-8.103
			c-5.152,0.234-6.764,3.993-6.674,8.511c0.091,4.573,1.949,8.14,7.152,8.023C547.26,261.358,548.291,257.311,548.718,253.046z"/>
		<path fill-rule="evenodd" clip-rule="evenodd" fill="#101010" d="M402.658,253.209c0.004-10.854,8.249-19.33,19.041-19.577
			c11.127-0.253,19.811,8.353,19.795,19.616c-0.016,10.979-8.129,19.317-19.02,19.542
			C411.361,273.02,402.655,264.417,402.658,253.209z M429.162,253.565c-0.277-4.524-1.587-8.378-6.781-8.627
			c-5.309-0.251-7.104,3.598-7.198,8.013c-0.093,4.341,1.312,8.374,6.651,8.538C427.081,261.648,428.678,257.988,429.162,253.565z"
			/>
		<path fill-rule="evenodd" clip-rule="evenodd" fill="#0F0F0F" d="M574.854,271.288c-6.418,1.727-7.395-1.696-7.001-7.055
			c0.36-4.913,0.153-9.876,0.032-14.812c-0.042-1.712,0.498-3.359-1.752-4.872c-4.409-2.963-4.405-6.293,0.124-9.9
			c3.698-2.944,1.295-7.579,1.598-11.423c0.679-8.647,3.915-12.659,11.651-12.929c2.098-0.073,5.723-1.787,6.134,1.729
			c0.365,3.136,1.679,6.709-1.398,9.832c-4.737,4.808-4.345,7.72,0.646,13.203c2.093,2.299,1.805,6.84,0.735,7.572
			c-9.089,6.216-3.397,15.12-4.363,22.613C580.657,269.921,580.306,272.706,574.854,271.288z"/>
		<path fill-rule="evenodd" clip-rule="evenodd" fill="#141414" d="M477.079,339.113c-9.48-0.221-12.512-3.678-13.692-12.458
			c-0.714-5.307,4.188-12.588-4.953-15.814c-1.485-0.524-2.082-7.155,0.646-7.751c6.077-1.329,4.464-5.37,4.323-8.746
			c-0.188-4.497,0.271-6.961,5.977-6.763c5.165,0.179,7.555,1.137,6.935,6.798c-0.421,3.849-1.433,8.433,5.468,8.307
			c3.09-0.055,1.438,3.512,1.69,5.427c0.239,1.81,0.443,4.301-2.46,4.152c-3.689-0.187-5.198,1.434-4.421,4.839
			c0.81,3.545-2.639,8.661,3.274,10.382c5.502,1.601,2.899,5.884,2.938,8.885C482.863,341.166,478.497,337.89,477.079,339.113z"/>
		<path fill-rule="evenodd" clip-rule="evenodd" fill="#101010" d="M497.623,271.467c-9.511-0.104-12.487-3.544-13.785-13.73
			c-0.615-4.83,3.576-11.449-4.7-14.314c-1.421-0.492-1.361-7.03-0.052-7.369c7.307-1.891,4.786-7.42,4.8-11.653
			c0.019-5.719,3.918-4.168,6.845-4.162c2.605,0.006,6.155-1.611,6.264,3.734c0.094,4.541-3.326,11.405,6.271,11.55
			c2.268,0.036,1.098,8.876-1.745,9.104c-3.396,0.272-5.329,0.992-4.564,4.655c0.76,3.643-2.376,8.82,3.318,10.568
			c5.894,1.81,2.989,6.302,3.003,9.443C503.293,273.339,499.41,270.603,497.623,271.467z"/>
		<path fill-rule="evenodd" clip-rule="evenodd" fill="#171717" d="M598.626,302.297c4.802,0.984,9.51,1.332,14.342-0.811
			c2.145-0.951,5.448,0.013,6.703,2.037c2.147,3.467-1.751,5.742-2.938,8.542c-0.724,1.709-1.229,4.158-4.66,2.68
			c-6.46-2.785-7.462,1.595-7.512,6.595c-0.032,3.285-0.458,6.647,0.08,9.841c1.258,7.461-2.38,8.584-8.692,8.104
			c-3.841-0.292-4.438-1.85-4.387-5.066c0.132-8.485,0.437-16.999-0.092-25.451C591.105,302.914,593.443,301.453,598.626,302.297z"
			/>
		<path fill-rule="evenodd" clip-rule="evenodd" fill="#141414" d="M446.15,252.654c-0.001-3.009,0.439-6.098-0.084-9.012
			c-1.494-8.301,2.966-10.152,9.581-8.643c3.736,0.853,6.828,1.042,10.343-0.667c2.873-1.398,6.428-0.66,8.302,1.706
			c2.415,3.049-1.493,5.228-2.541,7.761c-0.893,2.157-1.556,5.176-5.777,3.084c-4.361-2.163-6.617,0.811-6.795,5.157
			c-0.167,4.097-0.564,8.285,0.055,12.292c1.053,6.814-2.279,7.446-7.838,7.322c-4.58-0.102-5.554-1.853-5.306-5.875
			C446.358,261.42,446.15,257.031,446.15,252.654z"/>
		<path fill-rule="evenodd" clip-rule="evenodd" fill="#979697" d="M435.525,427.023c-11.541-10.35-11.541-10.35-21.954-2.584
			c3.87-8.218,6.852-14.547,10.433-22.149C428.893,410.696,432.54,417.88,435.525,427.023z"/>
		<path fill-rule="evenodd" clip-rule="evenodd" fill="#9D9B9D" d="M340.049,425.342c2.852-6.312,5.628-12.661,8.59-18.922
			c1.342-2.837,3.064-4.073,4.796-0.136c2.263,5.146,5.266,10.002,6.864,17.726c-8.764-9.389-14.227-5.624-18.587,3.087
			C341.158,426.513,340.604,425.928,340.049,425.342z"/>
		<path fill-rule="evenodd" clip-rule="evenodd" fill="#979697" d="M445.273,413.54c2.052-2.854-4.152-10.109,4.984-10.391
			c3.662-0.112,7.542,1.319,6.613,5.186c-1.407,5.855,7.61,13.726-2.932,17.515c-4.709,1.693-9.534,1.569-8.697-5.943
			C445.452,418.024,445.273,416.1,445.273,413.54z M451.368,415.236c-2.785-0.345-3.873,0.813-3.83,3.199
			c0.041,2.158-0.371,4.581,2.954,4.675c2.388,0.066,4.492-0.525,4.912-3.187C455.91,416.712,453.57,415.771,451.368,415.236z
			 M453.77,409.098c-0.047-2.344-1.604-3.24-3.602-3.529c-1.646-0.238-2.46,0.805-2.589,2.309c-0.173,2.015,0.094,3.854,2.755,3.867
			C452.122,411.754,453.432,411.048,453.77,409.098z"/>
		<path fill-rule="evenodd" clip-rule="evenodd" fill="#979697" d="M250.915,422.241c3.805-1.248,7.056,3.368,9.177-0.266
			c2.286-3.915-1.871-5.68-4.133-7.798c-3.314-3.107-5.782-6.636-1.736-10.435c3.591-3.372,6.831-1.567,9.269,2.123
			c-2.497,2.745-5.757-2.866-7.359,0.933c-1.613,3.821,2.52,4.925,4.484,6.894c3.462,3.472,5.796,7.501,1.534,11.282
			C258.22,428.461,254.076,427.07,250.915,422.241z"/>
		<path fill-rule="evenodd" clip-rule="evenodd" fill="#9D9B9D" d="M275.535,404.04c4.021,4.005,2.522,8.617,2.934,12.939
			c0.266,2.805,0.337,5.731,3.936,6.198c4.11,0.534,4.929-2.695,5.653-5.629c1.082-4.378-0.703-9.126,1.726-14.412
			c1.514,6.34,1.159,11.785,0.621,17.133c-0.394,3.921-2.953,6.337-7.214,6.352c-4.133,0.016-7.139-2.05-7.523-6.01
			C275.137,415.135,275.535,409.569,275.535,404.04z"/>
		<path fill-rule="evenodd" clip-rule="evenodd" fill="#979697" d="M302.362,425.281c10.859-3.264,8.467-7.039,2.957-11.269
			c-3.314-2.544-5.461-6.095-2.175-9.76c3.221-3.593,6.743-2.585,9.443,1.271c-0.698,2.085-2.009,1.383-3.164,0.824
			c-1.562-0.757-3.08-1.463-4.033,0.716c-0.643,1.469,0.145,2.641,1.149,3.618c1.171,1.139,2.421,2.196,3.651,3.273
			c2.635,2.308,4.506,5.116,3.034,8.605C311.592,426.429,308.331,427.327,302.362,425.281z"/>
		<path fill-rule="evenodd" clip-rule="evenodd" fill="#979697" d="M551.323,402.698c-3.366,8.383-6.753,15.164-6.509,23.448
			c-0.88-8.326-3.572-15.486-8.06-22.393C541.685,405.566,546.009,416.407,551.323,402.698z"/>
		<path fill-rule="evenodd" clip-rule="evenodd" fill="#9D9B9D" d="M392.229,413.158c4.284-0.109,5.167,3.396,7.891,4.306
			c1.966-4.556-0.569-9.383,2.276-14.62c3.032,7.647,0.798,14.5,1.758,22.715C398.192,422.226,395.235,418.397,392.229,413.158z"/>
		<path fill-rule="evenodd" clip-rule="evenodd" fill="#9D9B9D" d="M386.138,404.035c1.387,2.991,11.268,3.101,2.506,9.653
			c-2.494,1.867,0.388,8.087-2.196,11.968C384.097,418.51,384.704,411.333,386.138,404.035z"/>
		<path fill-rule="evenodd" clip-rule="evenodd" fill="#9D9B9D" d="M328.723,426.661c-4.529-7.817,2.577-17.183-5.933-22.972
			c3.909-0.949,7.385-0.778,11.455-0.125C325.882,409.682,332.745,418.675,328.723,426.661z"/>
		<path fill-rule="evenodd" clip-rule="evenodd" fill="#979697" d="M515.459,403.485c4.871-0.373,8.376-0.915,11.943,0.356
			c-8.796,5.616-0.977,15.254-5.731,22.545C516.978,419.19,524.298,409.53,515.459,403.485z"/>
		<path fill-rule="evenodd" clip-rule="evenodd" fill="#979697" d="M372.9,425.618c-2.02-7.203-2.002-14.458-0.2-21.743
			C375.136,411.036,374.519,418.306,372.9,425.618z"/>
		<path fill-rule="evenodd" clip-rule="evenodd" fill="#979697" d="M470.277,404.006c2.132,7.188,2.206,14.417,0.26,21.662
			C468.03,418.521,468.926,411.273,470.277,404.006z"/>
		<path fill-rule="evenodd" clip-rule="evenodd" fill="#979697" d="M505.132,425.619c-1.61-7.246-2.396-14.47,0.026-21.655
			C507.475,411.164,506.711,418.41,505.132,425.619z"/>
		<path fill-rule="evenodd" clip-rule="evenodd" fill="#979697" d="M484.153,403.756c4.623,7.087-5.832,20.282,11.733,20.254
			c-10.861,4.359-12.691,3.337-12.587-5.919C483.353,413.515,482.488,408.848,484.153,403.756z"/>
		<path fill-rule="evenodd" clip-rule="evenodd" fill="#F7F7F7" d="M375.97,228.833c0.525-3.108-2.039-8.112,4.916-7.435
			c5.164,0.501,10.328,0.663,10.133,7.697c-0.169,6.093-4.487,7.101-9.591,7.677C374.182,237.587,376.251,232.611,375.97,228.833z"
			/>
		<path fill-rule="evenodd" clip-rule="evenodd" fill="#EFEFEF" d="M386.793,314.757c-3.293,0-5.879,0-8.729,0
			c0.365-3.878,2.106-6.699,3.946-9.716C384.253,307.769,385.625,310.629,386.793,314.757z"/>
		<path fill-rule="evenodd" clip-rule="evenodd" fill="#EFEFEF" d="M651.994,321.08c-0.533,4.317-1.758,8.457-7.526,8.355
			c-5.4-0.096-6.731-4.16-6.737-8.409c-0.007-4.532,1.322-9.177,6.964-9.178C650.096,311.849,651.841,315.897,651.994,321.08z"/>
		<path fill-rule="evenodd" clip-rule="evenodd" fill="#EFEFEF" d="M572.291,316.255c-5.375-0.972-9.782,1.825-12.76-1.888
			c-1.113-1.389,1.235-3.498,2.99-4.217C567.155,308.249,569.397,311.04,572.291,316.255z"/>
		<path fill-rule="evenodd" clip-rule="evenodd" fill="#F7F7F7" d="M548.718,253.046c-0.427,4.265-1.458,8.312-6.798,8.432
			c-5.203,0.116-7.062-3.451-7.152-8.023c-0.09-4.518,1.521-8.277,6.674-8.511C546.742,244.703,548.139,248.601,548.718,253.046z"/>
		<path fill-rule="evenodd" clip-rule="evenodd" fill="#F7F7F7" d="M429.162,253.565c-0.484,4.423-2.081,8.083-7.328,7.924
			c-5.339-0.165-6.744-4.197-6.651-8.538c0.094-4.415,1.89-8.264,7.198-8.013C427.575,245.187,428.885,249.041,429.162,253.565z"/>
		<path fill-rule="evenodd" clip-rule="evenodd" fill="#F7F7F7" d="M451.368,415.236c2.202,0.534,4.542,1.476,4.036,4.688
			c-0.42,2.661-2.524,3.253-4.912,3.187c-3.325-0.094-2.913-2.517-2.954-4.675C447.495,416.05,448.583,414.892,451.368,415.236z"/>
		<path fill-rule="evenodd" clip-rule="evenodd" fill="#EFEFEF" d="M453.765,409.104c-0.333,1.943-1.643,2.649-3.431,2.64
			c-2.661-0.013-2.928-1.853-2.755-3.867c0.129-1.504,0.943-2.547,2.589-2.309C452.165,405.857,453.723,406.754,453.765,409.104z"/>
	</g>
</g>
</svg>
