<?xml version="1.0" encoding="iso-8859-1"?>
<!-- Generator: Adobe Illustrator 19.0.0, SVG Export Plug-In . SVG Version: 6.00 Build 0)  -->
<svg version="1.1" id="Layer_1" xmlns="http://www.w3.org/2000/svg" xmlns:xlink="http://www.w3.org/1999/xlink" x="0px" y="0px"
	 viewBox="0 0 205.333 70.667" style="enable-background:new 0 0 205.333 70.667;" xml:space="preserve">
<g>
	<path style="fill:#D0043C;" d="M4.081,67.726c0,0,8.587-9.652,35.149-9.953c0,0,21.126-0.418,34.952,9.803V59.13
		c0,0-17.964-11.953-48.434-7.398l2.19-3.018c0,0,26.623-4.008,46.209,7.371v-8.777c0,0-20.627-14.389-25.351-43.078h-7.49
		c0,0,1.21,19.605,16.88,37.957l-3.169-0.326c0,0-13.019-13.936-16.479-37.631h-9.334c0,0-2.189,25.9-25.122,42.623v9.18
		c0,0,19.823-10.223,29.618-36.936l1.382,2.902c0,0-7.951,22.906-31,36.727V67.726L4.081,67.726z"/>
	<g>
		<path d="M96.56,25.312h-2.752v8.582h-5.1V10.947h7.533c5.705,0,8.487,2.979,8.487,6.832
			C104.729,22.128,101.079,25.312,96.56,25.312z M95.892,15.12h-2.084v5.811h2.115c2.81,0,3.705-1.225,3.705-3.123
			C99.629,16.261,98.733,15.12,95.892,15.12z"/>
		<path d="M111.214,34.302c-4.344,0-7.272-3.27-7.272-7.238c0-3.973,2.929-7.24,7.272-7.24c4.375,0,7.271,3.267,7.271,7.24
			C118.484,31.033,115.589,34.302,111.214,34.302z M111.214,23.851c-1.709,0-2.694,1.49-2.694,3.213s0.985,3.211,2.694,3.211
			c1.71,0,2.694-1.488,2.694-3.211S112.924,23.851,111.214,23.851z"/>
		<path d="M128.766,25.427c-0.319-0.584-1.073-1.107-1.971-1.107c-0.754,0-1.651,0.641-1.651,1.867v7.707h-4.811V20.203h4.811v1.664
			c0.725-1.432,2.373-1.986,3.155-1.986c1.535,0,2.146,0.262,3.013,1.08L128.766,25.427z"/>
		<path d="M139.334,23.851v3.533c0,2.014,0.086,2.336,2.114,2.336h0.346v4.174h-2.259c-3.386,0-5.008-1.371-5.008-5.43v-4.672
			h-2.059v-3.59h2.086v-5.43h4.722v5.43h2.751v3.648H139.334z"/>
		<path d="M156.135,34.302c-4.344,0-7.273-3.27-7.273-7.238c0-3.973,2.93-7.24,7.273-7.24c4.375,0,7.27,3.267,7.27,7.24
			C163.404,31.033,160.51,34.302,156.135,34.302z M156.135,23.851c-1.709,0-2.693,1.49-2.693,3.213s0.984,3.211,2.693,3.211
			s2.693-1.488,2.693-3.211S157.844,23.851,156.135,23.851z"/>
		<path d="M170.873,23.851v10.043h-4.808V23.792h-1.712v-3.59h1.712v-4.699c0-3.328,2.085-4.498,4.575-4.498h2.056v4.234
			c-1.562,0-1.765,0.67-1.765,1.752v3.211h1.765v3.648H170.873z"/>
		<path d="M102.123,59.111l-2.348-5.227H92.91l-2.348,5.227h-5.414l11.152-24.002l11.24,24.002H102.123z M96.183,45.941
			l-1.882,4.236h3.966L96.183,45.941z"/>
		<path d="M118.172,59.111v-7.824c0-1.434-0.582-2.424-1.886-2.424c-1.36,0-2.085,0.758-2.085,2.391v7.857h-4.81V45.415h4.81v1.08
			c0.638-0.729,2.262-1.4,3.68-1.4c2.838,0,5.099,1.488,5.099,5.109v8.906H118.172z"/>
		<path d="M131.551,49.068v3.529c0,2.016,0.088,2.338,2.115,2.338h0.347v4.176h-2.261c-3.387,0-5.01-1.373-5.01-5.432v-4.672h-2.057
			v-3.592h2.085v-5.43h4.724v5.43h2.752v3.652H131.551z"/>
		<path d="M151.82,59.111h-2.605l-2.345-5.842l-2.493,5.842h-2.579l-5.967-13.695h5.184l2.783,6.715l3.244-7.795l3.07,7.795
			l2.752-6.715h5.127L151.82,59.111z"/>
		<path d="M162.42,53.124c0.233,2.248,2.23,2.977,3.737,2.977c1.562,0,2.811-0.262,4.113-1.635l2.056,2.746
			c-2.46,1.898-3.938,2.334-6.807,2.334c-4.315,0-7.679-2.566-7.679-7.24c0-4.438,3.13-7.387,7.446-7.387
			c4.317,0,7.156,3.299,7.156,8.205H162.42z M164.797,48.044c-1.275,0-2.203,1.082-2.348,2.512h5.069
			C167.227,49.328,166.302,48.044,164.797,48.044z"/>
		<path d="M183.359,50.644c-0.318-0.586-1.072-1.109-1.968-1.109c-0.754,0-1.652,0.643-1.652,1.867v7.709h-4.808V45.415h4.808v1.664
			c0.723-1.43,2.374-1.984,3.156-1.984c1.534,0,2.144,0.262,3.014,1.08L183.359,50.644z"/>
		<path d="M196.047,59.429c-1.594,0-2.984-0.582-3.71-1.457v7.764h-4.805v-20.32h4.72v1.08c0.607-0.672,1.882-1.488,3.707-1.488
			c5.012,0,6.548,4.262,6.548,6.92C202.507,58.029,198.797,59.429,196.047,59.429z M194.831,48.863
			c-1.826,0-2.667,1.547-2.667,3.561c0,1.898,0.929,3.211,2.724,3.211c1.768,0,2.664-1.576,2.664-3.473
			C197.552,50.234,196.539,48.863,194.831,48.863z"/>
	</g>
</g>
</svg>
