<?xml version="1.0" encoding="utf-8"?>
<!-- Generator: Adobe Illustrator 22.1.0, SVG Export Plug-In . SVG Version: 6.00 Build 0)  -->
<svg version="1.1" id="Layer_2" xmlns="http://www.w3.org/2000/svg" xmlns:xlink="http://www.w3.org/1999/xlink" x="0px" y="0px"
	 viewBox="0 0 1366 768" style="enable-background:new 0 0 1366 768;" xml:space="preserve">
<style type="text/css">
	.st0{fill:#C7CBE2;}
	.st1{fill:#DBDBDB;}
</style>
<g id="helices" class:"helice">
	<path class="st0" d="M273.4,439.7c0.6-0.7,46-28.2,46-28.2c0.1,0,0.1-0.1,0.2-0.1l12.8-6c1.8-0.8,3.5,1.2,2.5,2.8l-5,7.8
		c-0.2,0.3-0.5,0.6-0.9,0.7c0,0-54.9,24.3-55.3,23.4C273.5,440.1,273.4,439.8,273.4,439.7z"/>
	<path class="st0" d="M408.6,441.4c-0.9-0.1-47.4-25.8-47.4-25.8c-0.1,0-0.1-0.1-0.2-0.1l-11.6-8c-1.6-1.1-0.8-3.6,1.2-3.5l9.2,0.4
		c0.4,0,0.8,0.2,1.1,0.4c0,0,48.5,35.5,47.9,36.2C408.9,441.1,408.8,441.3,408.6,441.4z"/>
	<path class="st0" d="M342.4,323.4c0.3,0.9,1.4,53.9,1.4,53.9c0,0.1,0,0.1,0,0.2l-1.1,14.1c-0.2,1.9-2.8,2.5-3.7,0.7l-4.2-8.2
		c-0.2-0.3-0.2-0.7-0.2-1.1c0,0,6.5-59.7,7.4-59.6C342,323.3,342.4,323.3,342.4,323.4z"/>
</g>
<path id="poteau" class="st1" d="M356.9,565.1c-1.4-9.8-13.2-94.8-14-161.8c0-0.4-0.4-0.8-0.8-0.8l0,0c-0.4,0-0.8,0.4-0.8,0.8
	c-0.8,65.3-12.1,147.7-13.9,160.9c-0.1,1,0.6,1.8,1.6,1.8h27.2C356.6,566,356.9,565.6,356.9,565.1z"/>
</svg>
