<?xml version="1.0" encoding="utf-8"?>
<!-- Generator: Adobe Illustrator 22.1.0, SVG Export Plug-In . SVG Version: 6.00 Build 0)  -->
<svg version="1.1" id="Layer_2" xmlns="http://www.w3.org/2000/svg" xmlns:xlink="http://www.w3.org/1999/xlink" x="0px" y="0px"
	 viewBox="0 0 1366 768" style="enable-background:new 0 0 1366 768;" xml:space="preserve">
<style type="text/css">
	.st0{fill:#DBDBDB;}
	.st1{fill:#FB99F9;}
	.st2{fill:none;stroke:#FB99F9;stroke-width:0.5;stroke-miterlimit:10;}
</style>
<path id="poteau" class="st0" d="M356.9,565.1c-1.4-9.8-13.2-94.8-14-161.8c0-0.4-0.4-0.8-0.8-0.8l0,0c-0.4,0-0.8,0.4-0.8,0.8
	c-0.8,65.3-12.1,147.7-13.9,160.9c-0.1,1,0.6,1.8,1.6,1.8h27.2C356.6,566,356.9,565.6,356.9,565.1z"/>
<g id="helices">
	<g id="helices_1_">
		<path class="st1" d="M451.9,394.6c-1.2,0.5-75.9,2.4-75.9,2.4c-0.1,0-0.2,0-0.3,0l-19.8-1.5c-2.7-0.2-3.5-3.9-1.1-5.1l11.5-6
			c0.5-0.3,1-0.4,1.6-0.3c0,0,84.1,8.6,84,9.9C452,394,452,394.5,451.9,394.6z"/>
		<path class="st1" d="M287.6,298.4c1,0.8,40,64.5,40,64.5c0.1,0.1,0.1,0.2,0.1,0.3l8.6,17.9c1.2,2.5-1.6,5-3.9,3.5l-11-7
			c-0.5-0.3-0.8-0.7-1-1.2c0,0-34.6-77.2-33.5-77.7C287,298.6,287.4,298.3,287.6,298.4z"/>
		<path class="st1" d="M286.4,488.8c0.2-1.3,35.9-66.9,35.9-66.9c0-0.1,0.1-0.2,0.2-0.2l11.2-16.4c1.5-2.3,5.1-1.1,5,1.7l-0.5,13
			c0,0.5-0.2,1.1-0.5,1.5c0,0-49.5,68.6-50.5,67.8C286.8,489.2,286.5,489,286.4,488.8z"/>
	</g>
	<path class="st1" d="M356,340.1"/>
	<circle class="st2" cx="342" cy="394" r="110"/>
</g>
</svg>
