<?xml version="1.0" encoding="utf-8"?>
<!-- Generator: Adobe Illustrator 22.1.0, SVG Export Plug-In . SVG Version: 6.00 Build 0)  -->
<svg version="1.1" id="Layer_1" xmlns="http://www.w3.org/2000/svg" xmlns:xlink="http://www.w3.org/1999/xlink" x="0px" y="0px"
	 viewBox="0 0 783.3 1005" style="enable-background:new 0 0 783.3 1005;" xml:space="preserve">
<style type="text/css">
	.st0{fill:#DBDBDB;}
	.st1{fill:#FB99F9;}
	.st2{fill:none;stroke:#FB99F9;stroke-width:0.5;stroke-miterlimit:10;}
</style>
<path id="poteau" class="st0" d="M444.6,1001.7c-4.9-34.8-46.9-337.5-49.9-575.9c0-1.6-1.3-2.9-2.9-2.9l0,0c-1.6,0-2.9,1.3-2.9,2.9
	c-2.9,232.4-42.9,525.9-49.5,572.8c-0.5,3.4,2.2,6.4,5.6,6.4h96.7C443.4,1005,444.8,1003.4,444.6,1001.7z"/>
<g id="helices2">
	<path class="st1" d="M90.1,143.3c4.4,1.4,214.6,164.4,214.6,164.4c0.3,0.2,0.5,0.4,0.8,0.7l51.3,48.8c7.1,6.7,0.9,18.6-8.7,16.6
		l-45.4-9.4c-1.9-0.4-3.7-1.4-5-2.8c0,0-212.5-213.3-209.3-216.4C88.4,144.6,89.5,143.3,90.1,143.3z"/>
	<path class="st1" d="M326.2,778.7c-1-4.5,35-268,35-268c0-0.3,0.1-0.7,0.2-1l16.6-68.8c2.3-9.5,15.6-10.1,18.7-0.8l14.6,44
		c0.6,1.9,0.7,3.9,0.1,5.7c0,0-78.4,290.7-82.8,289.5C328.1,779.6,326.5,779.2,326.2,778.7z"/>
	<path class="st1" d="M758.4,256.6c-3.4,3.1-249.6,103.7-249.6,103.7c-0.3,0.1-0.6,0.2-1,0.3l-67.9,20c-9.4,2.8-16.5-8.5-10-15.8
		l30.8-34.7c1.3-1.5,3-2.5,4.9-3c0,0,291-77.4,292.1-73C758.2,254.5,758.7,256.1,758.4,256.6z"/>
	<circle class="st2" cx="391.6" cy="392.6" r="391.6"/>
</g>
</svg>
