<svg id="Layer_1" data-name="Layer 1" xmlns="http://www.w3.org/2000/svg" viewBox="0 0 768 768"><defs><style>.cls-1{fill:#fb99f9;}.cls-2{fill:none;stroke:#fb99f9;stroke-miterlimit:10;stroke-width:0.5px;}</style></defs><title>heliceArtboard 1</title><g id="helices"><path class="cls-1" d="M767.6,386.2c-4.2,1.6-264.9,8.4-264.9,8.4h-1l-69.3-5.2c-9.6-.7-12.2-13.5-3.7-18l40.3-21a9.6,9.6,0,0,1,5.5-1.1s293.7,30,293.2,34.5A2.5,2.5,0,0,1,767.6,386.2Z"/><path class="cls-1" d="M194.1,50.3c3.5,2.8,139.7,225.2,139.7,225.2a4.1,4.1,0,0,1,.5.9L364.4,339c4.2,8.6-5.6,17.3-13.7,12.2l-38.4-24.4a8.9,8.9,0,0,1-3.6-4.3S187.8,53.2,191.9,51.4A2.4,2.4,0,0,1,194.1,50.3Z"/><path class="cls-1" d="M190,714.9c.7-4.5,125.2-233.6,125.2-233.6a4.1,4.1,0,0,1,.5-.9L354.8,423c5.5-7.9,17.9-3.8,17.5,5.8l-1.9,45.5a10.3,10.3,0,0,1-1.9,5.3S195.7,718.9,192.1,716.3A2.6,2.6,0,0,1,190,714.9Z"/></g><circle class="cls-2" cx="384" cy="384" r="384"/></svg>