<svg id="Layer_1" data-name="Layer 1" xmlns="http://www.w3.org/2000/svg" viewBox="0 0 599 768"><defs><style>.cls-1{fill:#dbdbdb;}.cls-2{fill:#c3c8db;}.cls-3{fill:none;}</style></defs><title>helLastArtboard 1</title><path id="poteau" class="cls-1" d="M338.5,743.2c-3.8-26.6-35.9-258.1-38.2-440.4a2.2,2.2,0,0,0-2.2-2.2h0a2.3,2.3,0,0,0-2.3,2.2C293.6,480.6,263,705,258,740.8a4.4,4.4,0,0,0,4.3,5h74A2.3,2.3,0,0,0,338.5,743.2Z"/><g id="helices2"><path class="cls-2" d="M3.1,349.3c3-1.8,202.3-42,202.3-42h.8l53.9-5.3c7.5-.7,11.2,8.8,5.3,13.3l-28.2,21.6a7.4,7.4,0,0,1-4.1,1.6S3.5,354.7,3.3,351.3A1.8,1.8,0,0,1,3.1,349.3Z"/><path class="cls-2" d="M488.7,530.4c-3.1-1.7-137.6-154.3-137.6-154.3l-.5-.6-31.5-44c-4.4-6.1,2-14.1,8.9-11.3l32.8,13.6a8.1,8.1,0,0,1,3.3,2.8s129,190.7,126.1,192.6A1.7,1.7,0,0,1,488.7,530.4Z"/><path class="cls-2" d="M402.6,19.3c.1,3.5-64.8,196.3-64.8,196.3a1.9,1.9,0,0,1-.2.7l-22.4,49.3a7.5,7.5,0,0,1-14.2-2.1l-4.6-35.2a7.3,7.3,0,0,1,.7-4.3S397.8,17,400.9,18.5C401.3,18.3,402.5,18.8,402.6,19.3Z"/><circle class="cls-3" cx="298" cy="299.5" r="299.5"/></g></svg>