<svg id="Layer_1" data-name="Layer 1" xmlns="http://www.w3.org/2000/svg" viewBox="0 0 599 768"><defs><style>.cls-1{fill:#dbdbdb;}.cls-2{fill:#fb99f9;}.cls-3{fill:none;stroke:#fb99f9;stroke-miterlimit:10;stroke-width:0.5px;}</style></defs><title>HELLICEArtboard 1</title><path id="poteau" class="cls-1" d="M340.5,765.2c-3.8-26.6-35.9-258.1-38.2-440.4a2.2,2.2,0,0,0-2.2-2.2h0a2.3,2.3,0,0,0-2.3,2.2C295.6,502.6,265,727,260,762.8a4.4,4.4,0,0,0,4.3,5h74A2.3,2.3,0,0,0,340.5,765.2Z"/><g id="helices2"><path class="cls-2" d="M5,349.3c3.1-1.8,202.4-42,202.4-42h.8l53.9-5.3c7.4-.7,11.2,8.8,5.3,13.3l-28.2,21.6a7.7,7.7,0,0,1-4.1,1.6S5.5,354.7,5.3,351.3A2.1,2.1,0,0,1,5,349.3Z"/><path class="cls-2" d="M490.7,530.4c-3.1-1.7-137.6-154.3-137.6-154.3l-.5-.6-31.5-44c-4.4-6.1,2-14.1,8.9-11.3l32.7,13.6a7.8,7.8,0,0,1,3.4,2.8s129,190.7,126.1,192.6C492.1,529.7,491.1,530.5,490.7,530.4Z"/><path class="cls-2" d="M404.6,19.3c.1,3.5-64.8,196.3-64.8,196.3l-.3.7-22.3,49.3a7.5,7.5,0,0,1-14.2-2.1l-4.6-35.2a7.3,7.3,0,0,1,.7-4.3S399.7,17,402.8,18.5C403.3,18.3,404.5,18.8,404.6,19.3Z"/><circle class="cls-3" cx="300" cy="299.5" r="299.5"/></g></svg>