<svg id="Layer_1" data-name="Layer 1" xmlns="http://www.w3.org/2000/svg" viewBox="0 0 768 768"><defs><style>.cls-1{fill:#fc3;}</style></defs><title>sonnyArtboard 1</title><g id="rayon3"><path class="cls-1" d="M384,234a149.9,149.9,0,1,1-106.1,43.9A149.3,149.3,0,0,1,384,234m0-6A156,156,0,1,0,540,384,155.9,155.9,0,0,0,384,228Z"/></g><g id="rayon2"><path class="cls-1" d="M384,245a139,139,0,1,1-98.3,40.7A138.5,138.5,0,0,1,384,245m0-4A143,143,0,1,0,527,384,143,143,0,0,0,384,241Z"/></g><g id="rayon1"><path class="cls-1" d="M384,255.4A128.4,128.4,0,1,1,293,293a128.2,128.2,0,0,1,91-37.6m0-3A131.6,131.6,0,1,0,515.6,384,131.6,131.6,0,0,0,384,252.4Z"/></g><circle class="cls-1" cx="384" cy="384" r="162"/></svg>